<?xml version="1.0" encoding="UTF-8"?>
<svg id="Layer_1" xmlns="http://www.w3.org/2000/svg" xmlns:xlink="http://www.w3.org/1999/xlink" viewBox="0 0 595.28 841.89">
  <defs>
    <style>
      .cls-1 {
        fill: url(#linear-gradient-2);
      }

      .cls-2 {
        fill: url(#linear-gradient-4);
      }

      .cls-3 {
        fill: url(#linear-gradient-3);
      }

      .cls-4 {
        fill: url(#linear-gradient-5);
      }

      .cls-5 {
        fill: url(#linear-gradient-8);
      }

      .cls-6 {
        fill: url(#linear-gradient-7);
      }

      .cls-7 {
        fill: url(#linear-gradient-6);
      }

      .cls-8 {
        fill: url(#linear-gradient);
      }
    </style>
    <linearGradient id="linear-gradient" x1="386.13" y1="419.88" x2="436.99" y2="419.88" gradientUnits="userSpaceOnUse">
      <stop offset="0" stop-color="#ffd86e"/>
      <stop offset="0" stop-color="#f6ce67"/>
      <stop offset=".04" stop-color="#dcaf51"/>
      <stop offset=".07" stop-color="#c79640"/>
      <stop offset=".1" stop-color="#b98534"/>
      <stop offset=".14" stop-color="#b07b2d"/>
      <stop offset=".18" stop-color="#ae782b"/>
      <stop offset=".3" stop-color="#cd9e4a"/>
      <stop offset=".42" stop-color="#e8be64"/>
      <stop offset=".49" stop-color="#f3cb6e"/>
      <stop offset=".54" stop-color="#edc468"/>
      <stop offset=".62" stop-color="#ddb058"/>
      <stop offset=".72" stop-color="#c3913f"/>
      <stop offset=".78" stop-color="#ae782b"/>
      <stop offset=".82" stop-color="#b27d2e"/>
      <stop offset=".87" stop-color="#be8c38"/>
      <stop offset=".92" stop-color="#d3a44a"/>
      <stop offset=".98" stop-color="#f0c661"/>
      <stop offset="1" stop-color="#ffd86e"/>
    </linearGradient>
    <linearGradient id="linear-gradient-2" x1="145.49" y1="392.89" x2="583" y2="392.89" xlink:href="#linear-gradient"/>
    <linearGradient id="linear-gradient-3" y1="419.94" x2="436.99" y2="419.94" xlink:href="#linear-gradient"/>
    <linearGradient id="linear-gradient-4" x1="113.87" y1="389.9" x2="153.48" y2="389.9" xlink:href="#linear-gradient"/>
    <linearGradient id="linear-gradient-5" x1="72.49" y1="374.78" x2="92.53" y2="374.78" xlink:href="#linear-gradient"/>
    <linearGradient id="linear-gradient-6" x1="101.81" y1="333.35" x2="116.73" y2="333.35" xlink:href="#linear-gradient"/>
    <linearGradient id="linear-gradient-7" x1="51.39" y1="315.75" x2="58.72" y2="315.75" xlink:href="#linear-gradient"/>
    <linearGradient id="linear-gradient-8" x1=".31" y1="375.82" x2="143.32" y2="375.82" xlink:href="#linear-gradient"/>
  </defs>
  <g>
    <path class="cls-8" d="M433.77,400.28c-7.95-7.95-21.03-3.47-28.92,2.13l-.72-3.75-10.31-.07-7.69,41.11,8.93,4.06c3.52-11.39,3.04-23.05,10.49-32.92,4.96-6.57,14.6-15.18,23.33-10.88,1.28,7.35-5,11.03-11.62,11.51l5.86,10.32c7.24-4.65,19.82-12.35,10.66-21.51Z"/>
    <path class="cls-1" d="M580.86,389.98l2.14-7.73h-297.55s.49-42.68-19.57-36.03c9.6,9.52,9.12,36.99,9.12,36.99h-11.74c1.93-14.63,3.23-29.62-5.2-42.49h-11.74c6.64,13.75,10.72,27.22,6.5,42.49h-90.78s-1,3.01-1.39,4.5c-.14.6-.36,1.3-.36,1.3h1.18s-1.44,9.77-2.94,13.75c-.94,2.49-3.99,3.22-3.58,6.14,1.59,1.44,38.16-15.49,32.61,5.18-6.99-5.1-15.31-4.39-23.16-1.66-30.92,10.77-21.34,36.69,10.12,28.15,2.32-.63,5.02-3.28,7.11-3.3.52,0,4.47,7.09,8.55,5.24,5.71-25.66,18.75-56.07-23.47-43.94l1.3-9.55h83.52l-3.92,19.89c-6.84-2.52-8.87-12.04-17.73-12.89-10.52-1.01-28,13.25-27.97,23.89.03,7.47,6.69,17.15,13.48,20.28,11.93,5.5,18.55-1.94,26.99-9.3l-.73,7.76,7.9,3.9,13.24-52.56h10.92c-1.74,12.94-9.7,31.71-10.19,44.52-.2,5.2,5.27,5.94,8.87,8.01,3.45-14.23,2.48-26.22,15.76-35.45,21.76-15.14,29.88,1.69,16.12,19.84l-10.97,11.08,8.2,4.39c13.14-7.85,23.12-24.37,13.24-38.53-5.52-7.91-15.1-8.93-23.68-5.54-3.82,1.51-5.71,4.81-9.5,5.44l2.6-14.72h48.29s-11.72,33.54-3.17,45.65c8.32,11.78,23.99,8.04,34.48,1.39-2.98,6.18,4.71,5.7,8.5,9.01l11.08-46.4h-11.62c-3.07,11.04-3.06,23.48-10.77,32.66-7.98,9.52-24.6,13.23-24.71-3.68-.04-6.65,4.38-26.89,6.4-33.83.47-1.62,2.19-4.8,2.19-4.8h108.97s-1.08,9.24-2.52,12.87c-1.17,2.94-4.07,3.93-4,7.02,1.49,1.36,33.15-13.36,33.97,1.92.22,4.1-9.25-.33-12.51-.56-15.95-1.16-44.36,19.45-23.68,29.93,7.82,3.96,13.91,2.29,21.79.4,2.06-.5,6.43-2.93,7.19-2.87,1.46.12,5.94,6.46,9.76,4.81,2.88-25.2,19.76-55.65-23.47-43.95.06-3.14-1-6.95,1.94-9.56h92.01l-1.48,8.09-15.43,4.76c-34.37-21.58-68.07,26.1-23.55,40.64-19.95-16.99-8.95-43,16.96-37.45l-7.83,14.18,9.66,3.8c4.98-11.48,22.42-26,35.14-18.1,12.16,7.55-19.99,30.81-29.14,28.55,6.27,10.65,8.19,11.04,18.18,4.42,13.09-8.68,26.61-33.22,5.33-40.69l1.35-7.23h17.37ZM149,433.5c-3.78-5.99,14.83-14.69,20.01-15.25,3.49-.38,16.07.6,16.03,5.52-3.39,7.62-31.4,17.07-36.04,9.73ZM210.44,432.14c-8.17-11.2,10.59-27.1,21.16-28.13,5.18-.5,10.77,3.61,11.58,8.73,1.27,8.08-24.34,30.91-32.74,19.41ZM442.35,434.44c-6.32-5.77,13.1-15.08,17.92-15.91,6.34-1.1,13.85.1,18.3,5.24-4.62,7.59-30.2,16.18-36.22,10.67Z"/>
    <path class="cls-3" d="M433.77,400.35c9.16,9.16-3.42,16.86-10.66,21.51l-5.86-10.32c6.63-.48,12.9-4.15,11.62-11.51-8.73-4.3-18.37,4.31-23.33,10.88-7.45,9.87-6.97,21.53-10.49,32.92l-8.93-4.06,7.69-41.11,10.31.07.72,3.75c7.9-5.6,20.97-10.08,28.92-2.13Z"/>
  </g>
  <g>
    <path class="cls-2" d="M113.9,445.02c-.41-1.43,2.72-.97,4.33-1.41,5.3-1.44,6.56-5.12,7.07-9.42,2.76-23.08-1.76-49.75.05-73.27,1.02-13.25,7.91-25.28,25.54-26.11,1.36-.06,1.45-.01.14.6-6.39,3.01-8.51,10.71-9.02,16.43-2.32,26.16,1.74,54.59-.03,80.98.57,6.3,2.64,11.56,11.49,11.25.04.31-.76.95-.86.95h-38.71Z"/>
    <path class="cls-4" d="M72.62,371.59c1.44.58,2.06,2.26,4.01,1.91l.09-3.76,5.07.41-2.29-3.83c9-.41,18.05,9.22,9.77,15.11-7.79,5.54-18-2.54-16.65-9.84ZM80.94,372.54c-3.67.62,3.84,8.34,6.87,8.13,3.36-2.23-4.86-8.47-6.87-8.13Z"/>
    <path class="cls-7" d="M105.3,327.03l.59,2.39,3.15-2.38,3.15,2.38.86-2.87c7,4.86,3.65,15.85-6.62,13.2-5.52-1.42-6.31-10.41-1.12-12.72ZM108.75,339.01c3.48.04,2.68-7.78.84-8.14-3.44,1.3-1.99,5.81-.84,8.14Z"/>
    <path class="cls-6" d="M51.39,312.66c2.38-.28,4.39,1.17,5.73,2.63.51.56,2.74,3.31.85,3.59-3.22-.79-6.68-3.26-6.58-6.23Z"/>
    <path class="cls-5" d="M110.44,370.5c-4.49-4.8-8.94-9.48-8.29-16,.24-2.39,1.88-4.63,1.67-7.1-.47-5.57-7.66-10.33-5.68-16.07-5.39,1.81-8.8,5.76-12,9.55-5.63-8.11,5.74-8.65.87-17.21-2.15-3.79-7-7-6.03-11.92-4.21,2.32-8.87,5.42-10.55,9.57-3.22,7.93,7.95,14.32,12.85,20.04-.62.47-2.13-1.03-2.58-1.42-5.38-4.69-10.53-9.29-13.7-15.31-1.99-3.78-5.29-14.91-9.04-16.86-4.18-2.17-11.97-.85-16.43.39-.52.14-3.93.73-2.86,1.67,3.87.63,5.32,4.25,7.15,6.7l-.28-3.82,3.42,1.43.06-3.3,3.34-.05-1.68-2.83c7.46-.35,14.54,7.2,7.86,12.08-4.09,2.99-8.22,1.26-11.51-1.67-.73.92,3.09,3.77,4.17,4.05,2.17.57,5.28.21,7.9.9,6.89,1.83,8.49,11.14,13.99,14.92-2.63-.05-7.33-.84-9.26-2.35-2.19-1.71-1.71-4.42-2.96-6.49-2.6-4.31-11.2-3.46-15.94-5-1.89-.61-3.02-1.9-4.91-2.25v8.76c0,2.35,3.36,6.19,5.95,7.28,6.23,2.62,16.54,1.49,23.46,1.96,13.26.9,18.05,10.34,26.07,17.74.09.35-.57.32-.83.23-3.59-1.23-10.69-9.25-14.01-11.84-6.31-4.95-11.57-6.38-18.97-1.8-1.27.78-4.6,3.4-5.43,4.41-.33.4-.78.47-.55,1.19,7.73-1.13,12.75,8.88,20.21,7.38,1.34-.27,2.2-1.11,3.33-1.45,9.87-2.96,19.38,5.99,22.68,13.02,4.04,8.62,2.82,16.82-3.92,24.13-.42.07-.36-.46-.27-.7.92-2.47,2.49-4.32,3.19-7.25,1.94-8.22.71-17.67-7.73-23.01-8-5.07-17.43-2.93-20.68,4.93,10.09-10.51,21.31-3.09,22.4,8.29,1.03,10.78-4.42,20.97-11.17,29.76l-1.16.06-45.67-70.3H8.66l7.47,2.45,6.53,5.37v80.05c-1.86,9.27-7.33,18.33-18.83,21.05-1.43.34-3.92-.36-3.46,1.17h46.03c.1,0,.9-.64.86-.95-15.81-.41-22.12-14.67-22.9-26.02-.68-9.9.05-20.3,0-30.09-.08-14.25.16-28.56.03-42.77l48.93,72.59-6.62,5.99c4.98.5,10.37-.74,15.01-2.27,18.26-6.01,30.13-22.04,35.59-37.15,6.27-17.37,1.74-38.66,20.11-51.03l5.91-2.46c-21.54,3.32-30.87,23.37-32.87,39.64ZM80.57,352.08c-.5,1.7-3.92,2.18-7.64,1.08-3.71-1.1-6.32-3.37-5.82-5.07.5-1.7,3.92-2.18,7.64-1.08,3.71,1.1,6.32,3.37,5.82,5.07ZM96.14,352.1s-6.06-4.89-2.49-9.75c1.77-2.41,2.32-3.81,2.43-4.61-.16-.61-.24-1-.24-1,0,0,.35.19.24,1,.18.67.45,1.6.82,2.58.73,1.91,2.1.94,3.34,4.52,1.04,3.01-3.1,8.22-4.1,7.27Z"/>
  </g>
</svg>